<?xml version="1.0" encoding="utf-8"?>
<!-- Generator: Adobe Illustrator 16.0.3, SVG Export Plug-In . SVG Version: 6.00 Build 0)  -->
<svg version="1.2" baseProfile="tiny" id="Layer_1" xmlns="http://www.w3.org/2000/svg" xmlns:xlink="http://www.w3.org/1999/xlink"
	 x="0px" y="0px" width="116.863px" height="58.731px" viewBox="0 0 116.863 58.731" xml:space="preserve">
<path fill="#FFFFFF" d="M103.22,18.917c-4.364-1.486-8.718-1.137-12.913,0.729c-2.939,1.308-5.934,2.208-9.19,2.282
	c-1.271,0.029-2.331-0.699-3.437-0.713c-1.725-0.02-3.294-0.61-4.939-0.782c-1.802-0.189-3.387-1.027-5.031-1.383
	c-2.055-0.445-4.146-1.437-6.399-0.933c-1.501,0.336-3.069,0.393-4.55,0.788c-5.612,1.5-7.817,0.762-13.015-1.489
	c-2.915-1.263-5.802-2.8-9.17-2.277c-1.752,0.272-3.576,0.38-5.219,0.972c-1.347,0.485-2.275,0.405-3.649-0.057
	c-1.279-0.43-2.728-0.577-4.005-1.215c-0.106-0.052-0.177-0.173-0.267-0.259c-0.78-0.751-0.92-1.998-0.059-2.521
	c1.474-0.894,2.855-2.022,4.71-2.193c2.568-0.237,4.948,0.296,7.327,1.444c-3.653-3.371-8.54-3.857-12.63-1.407
	c-1.826,1.094-3.204,2.449-2.997,4.987c0.11,1.339,1.478,2.598,2.372,3.668c0.166,0.15,0.316,0.313,0.456,0.484
	c0.128,0.041,0.254,0.085,0.376,0.134c0.027-0.012,0.052-0.029,0.08-0.041c0.206-0.613-0.955-2.361-0.955-3.286
	c0.643,0.359,1.026,0.759,1.404,0.754c2.359-0.036,3.94,0.826,5.137,3.041c0.101,0.188,0.209,0.398,0.315,0.601
	c0.345,0.34,0.608,0.744,0.829,1.172c0.123,0.144,0.234,0.296,0.339,0.454c0.015,0.019,0.032,0.036,0.047,0.054
	c0.064,0.052,0.117,0.114,0.178,0.168c0.006,0.005,0.011,0.01,0.017,0.014c0.129,0.107,0.242,0.224,0.36,0.337
	c0.373,0.185,0.718,0.399,1.008,0.666c0.007-0.024,0.013-0.051,0.02-0.077c-0.019-0.278-0.019-0.557,0.001-0.835
	c-1.066-3.059-0.173-4.585,2.939-4.806c3.393-0.241,6.651,0.13,9.791,1.689c2.696,1.338,5.522,2.507,8.579,2.776
	c1.145,0.101,1.66,0.548,2.086,1.625c0.558,1.416,1.264,2.859,2.736,3.635c0.169,0.089,0.734,0.134,0.937,0.034
	c0.072-0.035-0.161-0.544-0.247-0.645c-1.036-1.211-0.285-2.627-0.429-3.934c-0.038-0.349,0.441-1.009,0.798-1.107
	c1.787-0.49,3.508-1.6,5.464-0.922c0.607,0.053,1.136,0.216,1.613,0.437c0.302,0.039,0.588,0.098,0.856,0.181
	c2.334,0.173,4.506,1.072,6.726,1.675c2.175,0.592,4.271,1.373,6.575,1.309c1.996-0.055,3.999-0.086,5.993,0.01
	c1.856,0.09,3.451-0.636,5.09-1.304c3.634-1.481,7.318-2.661,11.342-2.497c1.717,0.07,3.29,0.43,4.758,1.098
	c0.539,0.11,1.021,0.297,1.442,0.548c0.395,0.124,0.763,0.28,1.087,0.485c0.571,0.212,1.065,0.519,1.473,0.902
	c0.16,0.037,0.33,0.077,0.521,0.129C107.59,21.228,105.583,19.723,103.22,18.917"/>
<path fill="#FFFFFF" d="M110.908,44.817c0.914-1.572,3.242-1.825,4.619-3.033c-1.797,0.168-3.979,1.328-5.5,1.849
	c-0.792,0.27-1.243,0.957-2.477,0.25c-1.787-1.021-3.09-0.332-6.204-0.857c-3.324,0.793-6.009,0.703-8.63,2.551
	c-0.895,0.63-2.204,1.091-3.264,0.991c-4.423-0.416-8.689,1.228-13.363,0.973c0.03-0.021,0.07-0.047,0.104-0.07
	C76.008,47.49,75.816,47.5,75.62,47.5c-0.107,0-0.207-0.01-0.312-0.015c-0.072,0.003-0.14,0.011-0.212,0.014
	c-0.352,0.072-0.729,0.111-1.128,0.111c-0.289,0-0.562-0.026-0.824-0.064c-0.223,0.034-0.46,0.049-0.703,0.055
	c-0.274,0.108-0.566,0.203-0.887,0.271c-7.975,1.694-15.904,2.986-23.943,3.999c-0.615,0.292-1.326,0.473-2.157,0.473
	c-0.231,0-0.45-0.016-0.664-0.04c-0.493,0.163-1.039,0.261-1.648,0.261c-0.265,0-0.506-0.036-0.748-0.069
	c-0.044,0.005-0.088,0.011-0.132,0.016c0.518,0.056,0.929,0.12,1.155,0.199c-1.609,0.233-19.004,1.311-20.572,1.455
	c-1.523,0.141-2.819-0.357-4.081-1.024c-2.254-1.192-5.197-1.735-7.384-3.045c-0.803-0.482-8.486-4.046-9.577-4.213
	c2.795,2.177,12.834,5.96,15.417,8.075C11.381,54.87,5.681,52.304,0,53.835c5.215-0.051,10.183,1.093,15.344,0.719
	c0.994-0.071,2.003,0.256,2.993,0.354c0.68,0.069,1.334,0.383,2.004,0.576c2.792,0.802,5.542,1.964,8.39,2.301
	c3.119,0.368,6.2,1.149,9.429,0.896c6.254-0.491,12.538,0.435,18.825-0.687c3.263-0.582,6.588-0.889,9.863-1.577
	c5.827-1.223,11.421-3.089,16.852-5.495c1.796-0.795,3.587-1.6,5.392-2.373c0.225-0.096,0.534-0.067,0.788-0.018
	c5.593,1.097,11.032,0.324,16.106-2.031c2.321-1.077,4.249-0.906,6.452-0.203c1.441,0.459,2.799,1.355,4.426,1.086
	C114.316,46.618,112.879,45.702,110.908,44.817z M71.093,53.944c-3.372,0.492-7.09,2.354-10.502,2.207
	c-1.656-0.072-1.926,0.11-4.711,0.297c-1.784,0.474-0.818,0.061-4.967,0.631c-0.323,0.044-1.464,0.054-2.213,0.054
	c-3.624,0-7.251,0.097-10.87-0.029c-3.151-0.11-6.3-0.404-9.433-0.76c-1.004-0.113-1.955-0.683-3.378-1.209
	c1.039-0.113,1.678-0.237,2.318-0.242c2.624-0.023,5.251-0.089,7.872,0.009c3.68,0.138,7.199-1.276,10.851-1.503
	c3.772-0.235,7.992-1.299,11.779-1.817c3.305-0.452,3.266-0.619,5.025-0.991c5.874-1.651,3.683-1.029,7.856-1.872
	c1.871-0.109,2.935,0.172,5.1-0.054c2.66-0.279,2.07-0.406,4.418-0.115c0.36,0.045,3.109-0.265,3.54-0.389
	c0.438-0.125,0.938-0.028,2.261-0.028C80.69,51.166,76.607,51.85,71.093,53.944z M105.071,45.856
	c-3.938,0.998-7.867,2.175-12.571,1.23c4.268-1.836,8.201-3.063,12.465-2.676c0.233,0.022,0.593,0.426,0.605,0.669
	C105.585,45.337,105.304,45.797,105.071,45.856z"/>
<path fill="#FFFFFF" d="M110.182,3.755c-1.662,1.038-3.315,1.073-4.968,1.552c-3.019,0.876-8.855-0.357-12.244-1.983
	c-3.606-1.731-7.117-3.702-11.425-3.262c-1.756,0.179-3.201,0.574-4.601,1.636c-2.064,1.567-4.24,2.992-6.401,4.43
	c-4.181,2.781-9.05,3.072-13.807,3.757c-0.56,0.081-1.115,0.189-1.673,0.285c8.072,0.772,11.449,0.365,15.556-1.61
	c0,0-0.607,0.778-0.722,1.077c-0.865,2.256-0.413,3.755,1.661,3.244c1.578-0.39,2.259-0.028,2.429,0.104
	c-0.008-0.008-0.009-0.006-0.018-0.017c1.404,0.473,2.994,0.445,4.126,1.662c0.271,0.29,0.831,0.311,1.256,0.455
	c-0.134-0.353-0.283-0.702-0.391-1.064c-0.02-0.059,0.123-0.207,0.219-0.256c2.796-1.389,5.601-2.654,8.652-0.623
	c0.209,0.139,0.521,0.121,0.788,0.176c-0.05-0.338-0.013-0.723-0.166-1.003c-0.198-0.363-3.107-1.907,0.053-0.908
	c0.439,0.139,0.971,0.011,1.431,0.134c0.336,0.091,0.612,0.981,0.945,0.095c0.083-0.221-0.354-0.753-0.666-0.982
	c-0.461-0.333-1.01-0.569-1.552-0.76c-0.874-0.308-2.435-0.382-2.547-0.841c-0.478-1.929-2.469-1.508-3.407-2.575
	c1.248-0.733,2.507-1.26,4.046-1.129c1.736,0.148,3.654-0.404,5.199,0.158c1.536,0.559,3.132,0.98,4.591,1.571
	c1.995,0.809,3.885,0.575,5.759,0.469c1.814-0.102,3.789-0.579,5.329-1.499c1.876-1.123,3.707-1.584,5.8-1.42
	c0.459,0.036,0.926,0.005,1.389,0.005C113.318,3.832,111.99,1.964,110.182,3.755z M77.253,12.821
	c-0.44,0.057-0.982-0.543-1.427-0.905c-0.046-0.038,0.213-0.52,0.391-0.748c0.41-0.526,0.824-0.729,1.538-0.321
	c0.683,0.391,1.524,0.505,2.855,0.912C79.199,12.233,78.248,12.694,77.253,12.821z M83.769,9.607
	c-2.666,0.62-2.937,0.613-4.444-0.152C80.859,9.038,82.375,7.042,83.769,9.607z M81.837,4.841c-2.242,0.871-4.161,2.297-5.738,4.164
	c-1.013,1.199-2.235,2.135-3.856,2.376c-0.721,0.108-1.331-0.113-1.101-0.944c0.275-0.988,0.509-2.222,1.211-2.815
	c2.496-2.108,5.23-4.021,8.281-5.146c2.018-0.744,4.215,0.193,6.298,1.066C85.188,3.972,83.441,4.219,81.837,4.841z"/>
<path fill="#FFFFFF" d="M90.373,38.333c0.372-2.058,2.257-1.486,2.88-0.637c0.069,0.096,0.13,0.2,0.18,0.307
	c0.064-0.451,0.159-0.898,0.28-1.337c0.136-0.491,0.307-0.976,0.37-1.48c0.074-0.597-0.004-1.206-0.166-1.784
	c-0.523-1.851-1.986-3.295-3.661-4.241c-2.342-1.322-7.596-0.815-9.637,3.346C81.454,33.396,84.816,36.676,90.373,38.333"/>
<path fill="#FFFFFF" d="M92.222,37.815c-0.045-0.021-0.097-0.036-0.146-0.053c-0.052-0.018-0.089-0.025-0.136-0.036
	c-0.113-0.023-0.251-0.034-0.388,0.006c-0.068,0.013-0.13,0.056-0.19,0.087c-0.057,0.038-0.105,0.086-0.149,0.132
	c-0.079,0.097-0.133,0.2-0.166,0.299c-0.034,0.098-0.051,0.192-0.061,0.28c-0.009,0.088-0.01,0.17-0.006,0.244
	c0.011,0.15,0.037,0.271,0.062,0.354c0.025,0.084,0.048,0.13,0.048,0.13s0.021-0.047,0.052-0.126
	c0.028-0.076,0.071-0.184,0.124-0.314c0.049-0.125,0.109-0.266,0.185-0.387c0.017-0.032,0.04-0.055,0.057-0.084
	c0.021-0.027,0.044-0.043,0.063-0.068l0.06-0.044c0.024-0.004,0.037-0.025,0.063-0.024c0.043-0.014,0.093-0.012,0.16-0.009
	c0.043,0.007,0.096,0.011,0.129,0.017c0.037,0.006,0.071,0.012,0.107,0.018c0.074,0.015,0.147,0.031,0.213,0.051
	c0.068,0.02,0.134,0.041,0.191,0.066c0.117,0.046,0.214,0.102,0.282,0.148c0.066,0.046,0.105,0.08,0.105,0.08
	s0.002-0.052-0.024-0.138c-0.027-0.086-0.085-0.205-0.192-0.323C92.558,38.003,92.405,37.892,92.222,37.815"/>
<path fill="#FFFFFF" d="M92.272,42.228c0.439-0.064,0.879-0.127,1.317-0.191c-0.152-0.667-0.24-1.349-0.265-2.033
	c-0.062,0.1-0.13,0.196-0.209,0.283c-0.688,0.754-2.521,1.126-2.777-0.744c-1.133-0.349-7.368-2.366-10.288-5.443
	c-0.298,1.231-0.361,2.692-0.099,4.413c-0.656,0.094-0.979-0.774-1.217-1.406c-0.518-1.364-1.779-2.337-3.146-2.851
	c-1.365-0.513-2.842-0.629-4.296-0.74c-3.234-0.248-2.797,0.096-6.031-0.151c-1.293-0.099-3.799-0.512-5.087-0.37
	c-2.317,0.257-6.943,1.001-9.215,1.522s-4.924,0.433-6.594-1.193c-0.707-0.688-1.166-1.585-1.745-2.385
	c-0.579-0.8-1.357-1.547-2.333-1.69c-0.257-0.038-0.521-0.032-0.77-0.102c-0.367-0.103-0.669-0.356-0.996-0.552
	c-0.326-0.196-0.731-0.338-1.083-0.193c-0.353,0.145-0.518,0.694-0.207,0.914c-0.349-0.055-0.664,0.279-0.718,0.628
	c-0.054,0.349,0.079,0.698,0.216,1.024c0.587,1.392,1.174,2.846,1.997,4.113c-0.852-0.683-1.979-1.014-3.065-0.9
	c0.795,0.391,1.451,1.009,2.084,1.629c0.633,0.62,1.265,1.257,2.032,1.701c0.766,0.444,1.724,0.752,2.573,0.496
	c3.846-1.001,12.025,2.237,14.547,1.566c1.377-0.367,3.173-1.06,4.026-1.394c2.256-0.884,6.029-1.53,8.511-1.524
	c4.328,0.011,6.571,1.884,6.907,2.159c-0.763-0.219-1.526-0.439-2.29-0.658c-0.765-0.22-1.534-0.44-2.324-0.541
	c-1.334-0.169-2.686,0.008-4.018,0.191c-3.148,0.43-6.349,0.907-9.212,2.283c-0.993,0.476-1.895,1.086-2.986,1.233
	c-1.037,0.14-2.074,0.281-3.112,0.42c-0.27,0.037-0.544,0.074-0.796,0.178c-0.198,0.081-0.378,0.202-0.579,0.278
	c-0.222,0.084-0.457,0.127-0.682,0.205c-2.786,0.958-5.583,1.92-8.212,3.248c-0.621,0.314-1.234,0.649-1.885,0.891
	c-2.956,1.098-6.445,0.079-8.725-2.099c-0.961-0.918-1.737-2.016-2.718-2.914c-0.285-0.26-0.598-0.509-0.97-0.613
	c-0.373-0.105-0.817-0.032-1.063,0.267c-0.088,0.107-0.151,0.241-0.271,0.31c-0.179,0.103-0.434,0.031-0.586,0.17
	c-0.155,0.141-0.099,0.397-0.175,0.592c-0.111,0.281-0.474,0.385-0.614,0.652c-0.142,0.267-0.015,0.59,0,0.891
	c0.016,0.302-0.237,0.68-0.51,0.55c-0.078,0.15,0.038,0.323,0.147,0.451c0.614,0.719,1.227,1.438,1.841,2.158
	c0.792,0.928,1.746,1.709,2.786,2.347c1.71,1.049,3.631,1.754,5.613,2.061c0.423,0.065,0.853,0.113,1.279,0.079
	c0.432-0.033,0.853-0.15,1.273-0.256c5.912-1.504,12.223-1.259,17.968-3.311c0.588-0.21,1.193-0.421,1.813-0.465
	c3.74-1.123,7.539-1.17,11.352-1.012c0.636,0.008,1.271,0.042,1.906,0.092c2.343,0.125,4.687,0.27,7.022,0.237
	c1.925-0.358,3.844-0.745,5.766-1.111c0.093-0.052,0.194-0.095,0.301-0.129c0.402-0.377,0.845-0.666,1.393-0.733
	c0.909-0.11,1.742,0.454,2.576,0.835c0.833,0.382,1.975,0.521,2.529-0.208c0.162-0.212,0.364-0.966,1.141-0.773
	c-0.033-0.329-0.067-0.657-0.101-0.986c0.396-0.039,0.787-0.111,1.171-0.215C92.284,43.026,92.244,42.624,92.272,42.228"/>
</svg>
